<svg width="512" height="512" viewBox="0 0 512 512" fill="none" xmlns="http://www.w3.org/2000/svg">
  <rect width="512" height="512" rx="120" fill="#17120f"/>
  <rect x="44" y="44" width="424" height="424" rx="92" fill="#F4EFE7"/>
  <path d="M144 272C144 207.935 195.935 156 260 156H316V220H260C231.281 220 208 243.281 208 272C208 300.719 231.281 324 260 324H312C340.719 324 364 300.719 364 272V128H428V272C428 336.065 376.065 388 312 388H260C195.935 388 144 336.065 144 272Z" fill="#9C5028"/>
  <path d="M132 124H196V388H132V124Z" fill="#1A1714"/>
</svg>
