<svg width="512" height="512" viewBox="0 0 512 512" fill="none" xmlns="http://www.w3.org/2000/svg">
  <defs>
    <linearGradient id="bg" x1="84" y1="56" x2="444" y2="456" gradientUnits="userSpaceOnUse">
      <stop stop-color="#153056"/>
      <stop offset="1" stop-color="#09172B"/>
    </linearGradient>
    <linearGradient id="plate" x1="88" y1="70" x2="392" y2="442" gradientUnits="userSpaceOnUse">
      <stop stop-color="#FBFDFF"/>
      <stop offset="1" stop-color="#EEF4FC"/>
    </linearGradient>
    <linearGradient id="mark" x1="228" y1="128" x2="428" y2="404" gradientUnits="userSpaceOnUse">
      <stop stop-color="#55A3FF"/>
      <stop offset="1" stop-color="#1A73E8"/>
    </linearGradient>
    <linearGradient id="shine" x1="88" y1="78" x2="278" y2="230" gradientUnits="userSpaceOnUse">
      <stop stop-color="white" stop-opacity="0.28"/>
      <stop offset="1" stop-color="white" stop-opacity="0"/>
    </linearGradient>
  </defs>

  <rect width="512" height="512" rx="126" fill="url(#bg)"/>
  <rect x="34" y="34" width="444" height="444" rx="110" fill="white" fill-opacity="0.04"/>
  <rect x="56" y="56" width="400" height="400" rx="96" fill="url(#plate)"/>
  <path d="M100 94C146 58 222 54 288 76C182 76 124 136 106 206C95 170 94 127 100 94Z" fill="url(#shine)"/>
  <circle cx="368" cy="144" r="56" fill="#6EB5FF" fill-opacity="0.14"/>

  <rect x="132" y="118" width="70" height="276" rx="28" fill="#0A1628"/>
  <path d="M228 154C228 140.745 238.745 130 252 130H316C373.438 130 420 176.562 420 234V298C420 355.438 373.438 402 316 402H252C238.745 402 228 391.255 228 378V342C228 328.745 238.745 318 252 318H308C324.569 318 338 304.569 338 288V244C338 227.431 324.569 214 308 214H252C238.745 214 228 203.255 228 190V154Z" fill="url(#mark)"/>
  <circle cx="282" cy="266" r="46" fill="#F7FAFE"/>
</svg>
